<svg width="110" height="160" viewBox="0 0 110 160" fill="none" xmlns="http://www.w3.org/2000/svg">
<g clip-path="url(#clip0_5_35)">
<path d="M85 80H25C23.6458 80 22.474 80.4948 21.4844 81.4844C20.4948 82.474 20 83.6458 20 85C20 86.3542 20.4948 87.526 21.4844 88.5156C22.474 89.5052 23.6458 90 25 90H85C86.3542 90 87.526 89.5052 88.5156 88.5156C89.5052 87.526 90 86.3542 90 85C90 83.6458 89.5052 82.474 88.5156 81.4844C87.526 80.4948 86.3542 80 85 80ZM85 110H25C23.6458 110 22.474 110.495 21.4844 111.484C20.4948 112.474 20 113.646 20 115C20 116.354 20.4948 117.526 21.4844 118.516C22.474 119.505 23.6458 120 25 120H85C86.3542 120 87.526 119.505 88.5156 118.516C89.5052 117.526 90 116.354 90 115C90 113.646 89.5052 112.474 88.5156 111.484C87.526 110.495 86.3542 110 85 110ZM90 10V0L80 0V10H60V0L50 0V10L30 10V0L20 0V10C14.4791 10 9.76565 11.9531 5.85937 15.8594C1.9531 19.7656 0 24.4791 0 30L0 140C0 145.521 1.9531 150.234 5.85937 154.141C9.76565 158.047 14.4791 160 20 160H90C95.5209 160 100.234 158.047 104.141 154.141C108.047 150.234 110 145.521 110 140L110 30C110 24.4791 108.047 19.7656 104.141 15.8594C100.234 11.9531 95.5209 10 90 10ZM100 140C100 142.708 99.0104 145.052 97.0312 147.031C95.0521 149.01 92.7083 150 90 150H20C17.2917 150 14.9479 149.01 12.9687 147.031C10.9896 145.052 10 142.708 10 140L10 30C10 27.2917 10.9896 24.9479 12.9687 22.9688C14.9479 20.9896 17.2917 20 20 20L90 20C92.7083 20 95.0521 20.9896 97.0312 22.9688C99.0104 24.9479 100 27.2917 100 30L100 140ZM85 50L25 50C23.6458 50 22.474 50.4948 21.4844 51.4844C20.4948 52.474 20 53.6458 20 55C20 56.3542 20.4948 57.526 21.4844 58.5156C22.474 59.5052 23.6458 60 25 60L85 60C86.3542 60 87.526 59.5052 88.5156 58.5156C89.5052 57.526 90 56.3542 90 55C90 53.6458 89.5052 52.474 88.5156 51.4844C87.526 50.4948 86.3542 50 85 50Z" fill="white"/>
</g>
<defs>
<clipPath id="clip0_5_35">
<rect width="110" height="160" fill="white"/>
</clipPath>
</defs>
</svg>
