<svg width="145" height="130" viewBox="0 0 145 130" fill="none" xmlns="http://www.w3.org/2000/svg">
<g clip-path="url(#clip0_5_37)">
<path d="M101.534 42.8255C106.628 42.0356 110.901 39.6376 114.353 35.6315C117.805 31.6254 119.532 26.9705 119.532 21.6667C119.532 15.6857 117.409 10.5794 113.165 6.34766C108.92 2.11586 103.798 0 97.7986 0C93.0445 0 88.7715 1.41058 84.9795 4.23177C81.1875 7.05297 78.6124 10.6076 77.2541 14.8958C84.0457 16.0243 89.7619 19.2122 94.4028 24.4596C99.0437 29.7071 101.421 35.829 101.534 42.8255ZM100.685 50.1042C99.7795 53.6024 98.308 56.7903 96.2705 59.668C94.233 62.5456 91.7428 65 88.7998 67.0312C93.5539 68.4983 97.9684 70.5577 102.043 73.2096C106.118 75.8616 109.769 78.9648 112.995 82.5195C116.221 86.0742 118.937 90.0521 121.145 94.4531C123.352 98.8542 124.908 103.481 125.814 108.333H139.057C140.642 108.333 142.029 107.769 143.217 106.641C144.406 105.512 145 104.158 145 102.578V96.8229C145 90.6163 143.84 84.7483 141.519 79.2188C139.199 73.6892 136.029 68.8368 132.011 64.6615C127.993 60.4861 123.295 57.1007 117.919 54.5052C112.542 51.9097 106.797 50.4427 100.685 50.1042ZM43.466 42.8255C43.5792 35.829 45.9563 29.7071 50.5972 24.4596C55.2381 19.2122 60.9543 16.0243 67.7459 14.8958C66.3876 10.6076 63.8125 7.05297 60.0205 4.23177C56.2285 1.41058 51.9555 0 47.2014 0C41.2022 0 36.0802 2.11586 31.8355 6.34766C27.5907 10.5794 25.4684 15.6857 25.4684 21.6667C25.4684 26.9705 27.1946 31.6254 30.647 35.6315C34.0994 39.6376 38.3723 42.0356 43.466 42.8255ZM56.2002 67.0312C53.2572 65 50.767 62.5456 48.7295 59.668C46.692 56.7903 45.2205 53.6024 44.315 50.1042C38.2025 50.4427 32.4581 51.9097 27.0814 54.5052C21.7047 57.1007 17.0072 60.4861 12.9889 64.6615C8.97051 68.8368 5.80114 73.6892 3.48068 79.2188C1.16022 84.7483 0 90.6163 0 96.8229V102.578C0 104.158 0.594257 105.512 1.78279 106.641C2.97132 107.769 4.35792 108.333 5.94262 108.333H19.1862C20.0917 103.481 21.6481 98.8542 23.8554 94.4531C26.0627 90.0521 28.7793 86.0742 32.0053 82.5195C35.2313 78.9648 38.8817 75.8616 42.9567 73.2096C47.0316 70.5577 51.4461 68.4983 56.2002 67.0312ZM94.233 43.3333C94.233 49.2014 92.1107 54.2513 87.8659 58.4831C83.6212 62.7149 78.4992 64.8307 72.5 64.8307C66.5007 64.8307 61.3788 62.7149 57.1341 58.4831C52.8893 54.2513 50.767 49.2014 50.767 43.3333C50.767 37.3524 52.8893 32.2461 57.1341 28.0143C61.3788 23.7825 66.5007 21.6667 72.5 21.6667C78.4992 21.6667 83.6212 23.7825 87.8659 28.0143C92.1107 32.2461 94.233 37.3524 94.233 43.3333ZM72.5 71.6016C66.048 71.6016 59.9639 72.8429 54.2477 75.3255C48.5314 77.8082 43.5227 81.1653 39.2213 85.3971C34.92 89.6289 31.5525 94.5942 29.1189 100.293C26.6852 105.992 25.4684 112.057 25.4684 118.49V124.245C25.4684 125.825 26.0343 127.179 27.1663 128.307C28.2982 129.436 29.6565 130 31.2412 130H113.759C115.343 130 116.702 129.436 117.834 128.307C118.966 127.179 119.532 125.825 119.532 124.245V118.49C119.532 112.057 118.315 105.992 115.881 100.293C113.447 94.5942 110.08 89.6289 105.779 85.3971C101.477 81.1653 96.4686 77.8082 90.7523 75.3255C85.0361 72.8429 78.952 71.6016 72.5 71.6016Z" fill="white"/>
</g>
<defs>
<clipPath id="clip0_5_37">
<rect width="145" height="130" fill="white"/>
</clipPath>
</defs>
</svg>
