<svg width="116" height="129" viewBox="0 0 116 129" fill="none" xmlns="http://www.w3.org/2000/svg">
<g clip-path="url(#clip0_5_39)">
<path d="M19.3333 129H116V116.009H19.4844C17.9739 116.009 16.4887 115.581 15.0286 114.725C13.5686 113.869 12.8385 112.183 12.8385 109.665C12.8385 107.047 13.5686 105.31 15.0286 104.454C16.4887 103.598 17.9739 103.17 19.4844 103.17H116V12.9906C116 9.36532 114.741 6.29392 112.224 3.77635C109.707 1.25877 106.686 0 103.161 0H19.3333C15.4062 0 11.2023 1.46017 6.72135 4.38056C2.24043 7.30095 0 12.2857 0 19.3349V109.665C0 116.714 2.24043 121.699 6.72135 124.619C11.2023 127.54 15.4062 129 19.3333 129ZM12.8385 38.6698V19.3349C12.8385 16.8173 13.5686 15.1306 15.0286 14.2746C16.4887 13.4186 17.9236 12.9906 19.3333 12.9906H103.161V90.3302H12.8385V38.6698ZM32.1719 25.8302H90.1719V38.6698H32.1719V25.8302Z" fill="white"/>
</g>
<defs>
<clipPath id="clip0_5_39">
<rect width="116" height="129" fill="white"/>
</clipPath>
</defs>
</svg>
