<svg width="27" height="27" viewBox="0 0 27 27" fill="none" xmlns="http://www.w3.org/2000/svg">
<g clip-path="url(#clip0_14_129)">
<path d="M24 0H10.6875C9.9375 0 9.30209 0.260414 8.78125 0.78125C8.26041 1.30209 8 1.9375 8 2.6875V8H2.6875C1.9375 8 1.30209 8.26041 0.78125 8.78125C0.260414 9.30209 0 9.9375 0 10.6875V24C0 24.75 0.260414 25.3854 0.78125 25.9062C1.30209 26.4271 1.9375 26.6875 2.6875 26.6875H16C16.75 26.6875 17.3854 26.4271 17.9062 25.9062C18.4271 25.3854 18.6875 24.75 18.6875 24V18.6875H24C24.75 18.6875 25.3854 18.4271 25.9062 17.9062C26.4271 17.3854 26.6875 16.75 26.6875 16V2.6875C26.6875 1.9375 26.4271 1.30209 25.9062 0.78125C25.3854 0.260414 24.75 0 24 0ZM2.6875 24V10.6875H16V24H2.6875ZM24 16H18.6875V10.6875C18.6875 9.9375 18.4271 9.30209 17.9062 8.78125C17.3854 8.26041 16.75 8 16 8H10.6875V2.6875H24V16Z" fill="#04709E"/>
</g>
<defs>
<clipPath id="clip0_14_129">
<rect width="26.6875" height="26.6875" fill="white"/>
</clipPath>
</defs>
</svg>
